<?xml version="1.0" encoding="iso-8859-1"?>
<!-- Uploaded to: SVG Repo, www.svgrepo.com, Generator: SVG Repo Mixer Tools -->
<svg height="800px" width="800px" version="1.1" id="Layer_1" xmlns="http://www.w3.org/2000/svg" xmlns:xlink="http://www.w3.org/1999/xlink" 
	 viewBox="0 0 512 512" xml:space="preserve">
<!-- Se eliminó el círculo de fondo -->
<!-- <circle style="fill:#FFD15D;" cx="256" cy="256" r="256"/> -->
<!-- Se eliminó el path de fondo -->
<!-- <path style="fill:#F9B54C;" d="M271.694,511.507c123.938-7.497,224.068-103.162,238.501-225.102L351.854,128.062l-12.657,4.834 ..."/> -->
<path style="fill:#734B46;" d="M315.475,225.868c0,0-57.165,80.079,0,210.472H196.525c57.165-130.393,0-210.472,0-210.472h23.387
	l17.008,48.94l6.378-95.713h17.717l9.921,70.158l42.52-46.771L315.475,225.868z"/>
<path style="fill:#5B3836;" d="M315.475,225.868l-2.02-23.385l-42.52,46.771l-9.921-70.158h-5.587v257.243h60.049
	C258.31,305.945,315.475,225.868,315.475,225.868z"/>
<path style="fill:#FC6F58;" d="M199.973,154.215c0-11.807,9.456-21.378,21.118-21.378c11.662,0,21.118,9.571,21.118,21.378
	c0-11.807,9.456-21.378,21.118-21.378c11.662,0,21.118,9.571,21.118,21.378c0,20.442-42.236,44.896-42.236,44.896
	S199.973,175.811,199.973,154.215z"/>
<g>
	<path style="fill:#F4E3C3;" d="M145.627,222.42c-7.697-8.954-6.766-22.375,2.077-29.979c8.844-7.602,22.254-6.508,29.951,2.446
		c-7.697-8.954-6.766-22.375,2.077-29.979c8.844-7.602,22.254-6.508,29.951,2.446c13.326,15.503-2.762,61.578-2.762,61.578
		S159.704,238.795,145.627,222.42z"/>
	<path style="fill:#F4E3C3;" d="M280.007,112.287c5.575-10.409,18.429-14.383,28.71-8.875c10.281,5.506,14.096,18.408,8.523,28.817
		c5.575-10.409,18.429-14.383,28.71-8.875c10.281,5.506,14.096,18.408,8.523,28.817c-9.652,18.022-58.428,19.635-58.428,19.635
		S269.812,131.324,280.007,112.287z"/>
	<path style="fill:#F4E3C3;" d="M290.756,208.879c7.432-9.173,20.806-10.657,29.87-3.315c9.064,7.342,10.388,20.73,2.955,29.903
		c7.432-9.173,20.806-10.657,29.87-3.315c9.064,7.342,10.388,20.73,2.955,29.903c-12.869,15.882-61.087,8.292-61.087,8.292
		S277.163,225.656,290.756,208.879z"/>
</g>
<path style="fill:#FC6F58;" d="M143.463,198.958c-2.131-7.099,1.831-14.558,8.849-16.662c7.018-2.103,14.433,1.946,16.563,9.045
	c-2.131-7.099,1.831-14.558,8.849-16.662s14.433,1.946,16.563,9.045c3.687,12.29-17.311,34.607-17.311,34.607
	S147.359,211.94,143.463,198.958z"/>
<path style="fill:#F4E3C3;" d="M147.854,129.436c-2.131-7.099,1.831-14.558,8.849-16.662c7.018-2.103,14.433,1.946,16.563,9.045
	c-2.131-7.099,1.831-14.558,8.849-16.662c7.018-2.103,14.433,1.946,16.563,9.045c3.687,12.29-17.311,34.607-17.311,34.607
	S151.749,142.419,147.854,129.436z"/>
<g>
	<path style="fill:#C1321F;" d="M228.131,110.166c-2.131-7.099,1.831-14.558,8.849-16.662c7.018-2.103,14.433,1.946,16.563,9.045
		c-2.131-7.099,1.831-14.558,8.849-16.662c7.018-2.103,14.433,1.946,16.563,9.045c3.687,12.29-17.311,34.607-17.311,34.607
		S232.027,123.151,228.131,110.166z"/>
	<path style="fill:#C1321F;" d="M162.864,292.717c-6.87-2.782-10.206-10.542-7.452-17.33c2.753-6.789,10.554-10.035,17.422-7.252
		c-6.87-2.782-10.206-10.542-7.452-17.33c2.753-6.789,10.554-10.035,17.422-7.252c11.893,4.818,16.15,35.166,16.15,35.166
		S175.428,297.806,162.864,292.717z"/>
	<path style="fill:#C1321F;" d="M199.687,223.944c-2.131-7.099,1.831-14.558,8.849-16.662c7.018-2.103,14.433,1.946,16.563,9.045
		c-2.131-7.099,1.831-14.558,8.849-16.662s14.433,1.946,16.563,9.045c3.687,12.29-17.311,34.607-17.311,34.607
		S203.583,236.928,199.687,223.944z"/>
	<path style="fill:#C1321F;" d="M357.981,169.91c5.665-4.779,14.086-4.11,18.806,1.491c4.722,5.601,3.956,14.015-1.71,18.794
		c5.665-4.779,14.086-4.11,18.806,1.491c4.722,5.601,3.956,14.015-1.71,18.794c-9.809,8.273-38.64-2.117-38.64-2.117
		S347.619,178.65,357.981,169.91z"/>
</g>
<path style="fill:#FC6F58;" d="M292.404,176.175c3.415-6.577,11.452-9.173,17.953-5.798s9,11.443,5.587,18.02
	c3.415-6.577,11.452-9.173,17.953-5.797c6.501,3.375,9.001,11.443,5.587,18.02c-5.913,11.388-36.523,12.786-36.523,12.786
	S286.158,188.202,292.404,176.175z"/>
</svg>